<svg width="263" height="28" viewBox="0 0 263 28" fill="none" xmlns="http://www.w3.org/2000/svg">
<g clip-path="url(#clip0_73_5173)">
<path d="M27.2846 10.1111L21.1213 15.5228H5.85683C4.43303 15.5209 3.05772 16.0276 1.99023 16.9472L9.68903 10.1856L9.80715 10.0834L19.4527 1.60541C21.008 0.239821 23.1915 -0.212136 25.1807 0.419784C27.17 1.0517 28.6627 2.6715 29.0967 4.669C29.5306 6.6665 28.8398 8.73825 27.2846 10.1038V10.1111Z" fill="#F15B41"/>
<path d="M5.85671 11.5798C9.09128 11.5798 11.7134 9.02039 11.7134 5.86314C11.7134 2.70589 9.09128 0.146439 5.85671 0.146439C2.62214 0.146439 0 2.70589 0 5.86314C0 9.02039 2.62214 11.5798 5.85671 11.5798Z" fill="#F99D1D"/>
<path d="M5.85698 15.5228C4.43317 15.5209 3.05787 16.0276 1.99038 16.9472L1.94104 16.991C-0.463624 19.102 -0.659766 22.7161 1.50295 25.0633C3.66566 27.4105 7.36825 27.6019 9.77291 25.4909L21.123 15.5243L5.85698 15.5228Z" fill="#272560"/>
<path d="M21.1128 15.5272L9.76153 25.4938C8.68669 26.4373 7.29118 26.9574 5.8457 26.9534L23.3585 26.9533C26.7365 26.9006 29.1215 24.42 29.1215 21.2373C29.1215 18.0547 26.5561 15.5712 23.3585 15.5214L21.1128 15.5272Z" fill="#00B6BD"/>
<path d="M37.612 22.1742C37.1244 22.1918 36.6527 22.0041 36.3175 21.6591C35.9894 21.3108 35.8145 20.8513 35.8301 20.3791C35.8255 19.9035 35.9463 19.4347 36.181 19.0174C36.3873 18.6444 36.6391 18.2969 36.931 17.9827L44.1773 10.0111H37.861C37.249 10.0111 36.811 9.80679 36.571 9.40106C36.3374 8.99347 36.2208 8.53219 36.2335 8.06565C36.2167 7.61601 36.3498 7.17314 36.613 6.80322C36.8739 6.45314 37.2986 6.25452 37.7425 6.27489H48.9021C49.3739 6.25374 49.8341 6.42145 50.1755 6.739C50.492 7.04695 50.6525 7.48479 50.6525 8.03938C50.6659 8.47125 50.5733 8.9 50.3825 9.29014C50.1994 9.63005 49.9699 9.94426 49.7001 10.2242L42.1538 18.4366H49.3041C49.7342 18.4262 50.1437 18.6159 50.4065 18.9474C50.6866 19.318 50.8279 19.7707 50.807 20.2302C50.8274 20.709 50.7095 21.1838 50.4665 21.6007C50.222 21.9816 49.7886 22.1757 49.1796 22.1757L37.612 22.1742Z" fill="#272560"/>
<path d="M55.1423 22.3844C53.1563 22.3844 52.7424 21.392 52.7424 20.5601V8.41738C52.7424 7.78252 52.9389 7.26879 53.3288 6.89079C53.7188 6.51279 54.3398 6.32014 55.1768 6.32014C55.8817 6.32014 56.4397 6.4763 56.8372 6.78571C57.2347 7.09511 57.4552 7.59425 57.4552 8.23641V20.4959C57.4552 21.1628 57.2392 21.6532 56.8132 21.9553C56.3872 22.2574 55.8397 22.3844 55.1423 22.3844ZM55.1423 5.01684C54.3683 5.01684 53.7338 4.79646 53.2538 4.36154C52.7739 3.92663 52.5234 3.32679 52.5234 2.58976C52.5049 1.93636 52.7688 1.30535 53.2508 0.850085C53.7263 0.396193 54.3638 0.164139 55.1423 0.164139C55.7842 0.165501 56.4082 0.370449 56.9197 0.747923C57.4777 1.14781 57.7612 1.76954 57.7612 2.5956C57.7612 3.33262 57.5152 3.92954 57.0307 4.36884C56.5462 4.80814 55.9117 5.02122 55.1423 5.02122V5.01684Z" fill="#272560"/>
<path d="M62.6326 27.0374C60.7757 27.0374 60.3827 26.0289 60.3827 25.1824V8.00583C60.3666 7.46783 60.5794 6.94722 60.9707 6.56679C61.3591 6.18879 61.9816 5.99614 62.8186 5.99614C63.3392 5.99099 63.8535 6.10709 64.3185 6.33473C64.812 6.58138 65.0685 7.06447 65.0685 7.75772C65.1685 7.64583 65.276 7.53102 65.391 7.41329C65.7062 7.10192 66.0587 6.8285 66.441 6.5989C67.37 6.03469 68.4463 5.74284 69.5413 5.75824C70.5907 5.7384 71.6302 5.9573 72.5772 6.39749C73.4439 6.81376 74.1985 7.42152 74.7807 8.17221C75.3874 8.97514 75.8303 9.88375 76.0856 10.8489C76.3776 11.9395 76.5208 13.0627 76.5116 14.1896C76.5223 15.3376 76.3575 16.4807 76.0226 17.5814C75.7267 18.5592 75.2409 19.4728 74.5917 20.2727C73.9661 21.0264 73.1733 21.6327 72.2727 22.046C71.2929 22.4832 70.2247 22.7011 69.1469 22.6838C68.4251 22.7039 67.7049 22.6053 67.0169 22.3919C66.5228 22.2289 66.0532 22.0026 65.6205 21.7191C65.3859 21.5641 65.1696 21.3845 64.9755 21.1834V25.0948C64.9755 25.7749 64.785 26.277 64.4085 26.5864C64.032 26.8958 63.4531 27.0374 62.6326 27.0374ZM68.3414 9.6492C67.8303 9.63717 67.3246 9.75327 66.8729 9.98634C66.4479 10.2208 66.0836 10.5468 65.808 10.9394C65.4983 11.3835 65.2723 11.8777 65.1405 12.3989C64.9853 13.0045 64.9092 13.6268 64.914 14.2509C64.914 15.6725 65.214 16.8123 65.814 17.6398C66.414 18.4673 67.2284 18.8541 68.3474 18.8541C69.4663 18.8541 70.2808 18.4396 70.8463 17.5858C71.4118 16.732 71.7133 15.5951 71.7133 14.2509C71.7151 13.6284 71.6365 13.0081 71.4793 12.4047C71.3475 11.8858 71.1264 11.3923 70.8253 10.9452C70.5575 10.5521 70.1977 10.2265 69.7753 9.9951C69.3358 9.76181 68.842 9.64268 68.3414 9.6492Z" fill="#272560"/>
</g>
<path d="M88.5 3V26" stroke="#00AEB8" stroke-width="2"/>
<path d="M106.828 11.096C106.212 11.096 105.656 10.96 105.16 10.688C104.672 10.408 104.284 10.016 103.996 9.512C103.716 9 103.576 8.404 103.576 7.724C103.576 7.044 103.72 6.452 104.008 5.948C104.296 5.436 104.688 5.044 105.184 4.772C105.68 4.492 106.236 4.352 106.852 4.352C107.468 4.352 108.024 4.492 108.52 4.772C109.024 5.044 109.416 5.436 109.696 5.948C109.984 6.452 110.128 7.044 110.128 7.724C110.128 8.396 109.984 8.988 109.696 9.5C109.408 10.012 109.012 10.408 108.508 10.688C108.004 10.96 107.444 11.096 106.828 11.096ZM106.828 10.364C107.26 10.364 107.66 10.268 108.028 10.076C108.396 9.876 108.692 9.58 108.916 9.188C109.148 8.788 109.264 8.3 109.264 7.724C109.264 7.148 109.152 6.664 108.928 6.272C108.704 5.872 108.408 5.576 108.04 5.384C107.672 5.184 107.272 5.084 106.84 5.084C106.408 5.084 106.008 5.184 105.64 5.384C105.272 5.576 104.976 5.872 104.752 6.272C104.536 6.664 104.428 7.148 104.428 7.724C104.428 8.3 104.536 8.788 104.752 9.188C104.976 9.58 105.268 9.876 105.628 10.076C105.996 10.268 106.396 10.364 106.828 10.364ZM120.299 4.448L118.247 11H117.407L115.595 5.504L113.783 11H112.931L110.879 4.448H111.731L113.363 10.148L115.199 4.448H116.039L117.851 10.16L119.471 4.448H120.299ZM124.516 4.328C125.3 4.328 125.94 4.572 126.436 5.06C126.932 5.54 127.18 6.24 127.18 7.16V11H126.352V7.256C126.352 6.544 126.172 6 125.812 5.624C125.46 5.248 124.976 5.06 124.36 5.06C123.728 5.06 123.224 5.26 122.848 5.66C122.472 6.06 122.284 6.648 122.284 7.424V11H121.444V4.448H122.284V5.564C122.492 5.164 122.792 4.86 123.184 4.652C123.576 4.436 124.02 4.328 124.516 4.328ZM132.751 3.212C132.583 3.212 132.439 3.152 132.319 3.032C132.199 2.912 132.139 2.764 132.139 2.588C132.139 2.412 132.199 2.268 132.319 2.156C132.439 2.036 132.583 1.976 132.751 1.976C132.919 1.976 133.063 2.036 133.183 2.156C133.303 2.268 133.363 2.412 133.363 2.588C133.363 2.764 133.303 2.912 133.183 3.032C133.063 3.152 132.919 3.212 132.751 3.212ZM133.171 4.448V11H132.331V4.448H133.171ZM136.165 5.156V9.224C136.165 9.624 136.241 9.9 136.393 10.052C136.545 10.204 136.813 10.28 137.197 10.28H137.965V11H137.065C136.473 11 136.033 10.864 135.745 10.592C135.457 10.312 135.313 9.856 135.313 9.224V5.156H134.401V4.448H135.313V2.804H136.165V4.448H137.965V5.156H136.165ZM145.716 4.328C146.5 4.328 147.14 4.572 147.636 5.06C148.132 5.54 148.38 6.24 148.38 7.16V11H147.552V7.256C147.552 6.544 147.372 6 147.012 5.624C146.66 5.248 146.176 5.06 145.56 5.06C144.928 5.06 144.424 5.26 144.048 5.66C143.672 6.06 143.484 6.648 143.484 7.424V11H142.644V4.448H143.484V5.564C143.692 5.164 143.992 4.86 144.384 4.652C144.776 4.436 145.22 4.328 145.716 4.328ZM153.105 11.096C152.489 11.096 151.933 10.96 151.437 10.688C150.949 10.408 150.561 10.016 150.273 9.512C149.993 9 149.853 8.404 149.853 7.724C149.853 7.044 149.997 6.452 150.285 5.948C150.573 5.436 150.965 5.044 151.461 4.772C151.957 4.492 152.513 4.352 153.129 4.352C153.745 4.352 154.301 4.492 154.797 4.772C155.301 5.044 155.693 5.436 155.973 5.948C156.261 6.452 156.405 7.044 156.405 7.724C156.405 8.396 156.261 8.988 155.973 9.5C155.685 10.012 155.289 10.408 154.785 10.688C154.281 10.96 153.721 11.096 153.105 11.096ZM153.105 10.364C153.537 10.364 153.937 10.268 154.305 10.076C154.673 9.876 154.969 9.58 155.193 9.188C155.425 8.788 155.541 8.3 155.541 7.724C155.541 7.148 155.429 6.664 155.205 6.272C154.981 5.872 154.685 5.576 154.317 5.384C153.949 5.184 153.549 5.084 153.117 5.084C152.685 5.084 152.285 5.184 151.917 5.384C151.549 5.576 151.253 5.872 151.029 6.272C150.813 6.664 150.705 7.148 150.705 7.724C150.705 8.3 150.813 8.788 151.029 9.188C151.253 9.58 151.545 9.876 151.905 10.076C152.273 10.268 152.673 10.364 153.105 10.364ZM166.577 4.448L164.525 11H163.685L161.873 5.504L160.061 11H159.209L157.157 4.448H158.009L159.641 10.148L161.477 4.448H162.317L164.129 10.16L165.749 4.448H166.577ZM168.49 9.608L167.242 12.752H166.666L167.554 9.608H168.49ZM178.765 4.448V11H177.925V9.848C177.733 10.256 177.437 10.568 177.037 10.784C176.637 11 176.189 11.108 175.693 11.108C174.909 11.108 174.269 10.868 173.773 10.388C173.277 9.9 173.029 9.196 173.029 8.276V4.448H173.857V8.18C173.857 8.892 174.033 9.436 174.385 9.812C174.745 10.188 175.233 10.376 175.849 10.376C176.481 10.376 176.985 10.176 177.361 9.776C177.737 9.376 177.925 8.788 177.925 8.012V4.448H178.765ZM181.511 5.888C181.719 5.448 182.047 5.084 182.495 4.796C182.951 4.5 183.491 4.352 184.115 4.352C184.707 4.352 185.239 4.492 185.711 4.772C186.191 5.044 186.563 5.436 186.827 5.948C187.099 6.452 187.235 7.04 187.235 7.712C187.235 8.384 187.099 8.976 186.827 9.488C186.563 10 186.191 10.396 185.711 10.676C185.239 10.956 184.707 11.096 184.115 11.096C183.499 11.096 182.963 10.952 182.507 10.664C182.051 10.368 181.719 10 181.511 9.56V14.096H180.683V4.448H181.511V5.888ZM186.383 7.712C186.383 7.168 186.275 6.7 186.059 6.308C185.851 5.908 185.563 5.604 185.195 5.396C184.827 5.188 184.411 5.084 183.947 5.084C183.499 5.084 183.087 5.192 182.711 5.408C182.343 5.624 182.051 5.932 181.835 6.332C181.619 6.732 181.511 7.196 181.511 7.724C181.511 8.252 181.619 8.716 181.835 9.116C182.051 9.516 182.343 9.824 182.711 10.04C183.087 10.256 183.499 10.364 183.947 10.364C184.411 10.364 184.827 10.26 185.195 10.052C185.563 9.836 185.851 9.528 186.059 9.128C186.275 8.72 186.383 8.248 186.383 7.712ZM193.165 5.156V9.224C193.165 9.624 193.241 9.9 193.393 10.052C193.545 10.204 193.813 10.28 194.197 10.28H194.965V11H194.065C193.473 11 193.033 10.864 192.745 10.592C192.457 10.312 192.313 9.856 192.313 9.224V5.156H191.401V4.448H192.313V2.804H193.165V4.448H194.965V5.156H193.165ZM199.219 11.096C198.603 11.096 198.047 10.96 197.551 10.688C197.063 10.408 196.675 10.016 196.387 9.512C196.107 9 195.967 8.404 195.967 7.724C195.967 7.044 196.111 6.452 196.399 5.948C196.687 5.436 197.079 5.044 197.575 4.772C198.071 4.492 198.627 4.352 199.243 4.352C199.859 4.352 200.415 4.492 200.911 4.772C201.415 5.044 201.807 5.436 202.087 5.948C202.375 6.452 202.519 7.044 202.519 7.724C202.519 8.396 202.375 8.988 202.087 9.5C201.799 10.012 201.403 10.408 200.899 10.688C200.395 10.96 199.835 11.096 199.219 11.096ZM199.219 10.364C199.651 10.364 200.051 10.268 200.419 10.076C200.787 9.876 201.083 9.58 201.307 9.188C201.539 8.788 201.655 8.3 201.655 7.724C201.655 7.148 201.543 6.664 201.319 6.272C201.095 5.872 200.799 5.576 200.431 5.384C200.063 5.184 199.663 5.084 199.231 5.084C198.799 5.084 198.399 5.184 198.031 5.384C197.663 5.576 197.367 5.872 197.143 6.272C196.927 6.664 196.819 7.148 196.819 7.724C196.819 8.3 196.927 8.788 197.143 9.188C197.367 9.58 197.659 9.876 198.019 10.076C198.387 10.268 198.787 10.364 199.219 10.364ZM212.107 4.496C211.931 3.456 211.327 2.936 210.295 2.936C209.511 2.936 208.923 3.24 208.531 3.848C208.139 4.456 207.959 5.452 207.991 6.836C208.151 6.356 208.455 5.98 208.903 5.708C209.359 5.428 209.879 5.288 210.463 5.288C211.303 5.288 211.967 5.548 212.455 6.068C212.951 6.58 213.199 7.288 213.199 8.192C213.199 8.72 213.095 9.2 212.887 9.632C212.687 10.056 212.375 10.396 211.951 10.652C211.535 10.908 211.015 11.036 210.391 11.036C209.199 11.036 208.375 10.656 207.919 9.896C207.471 9.136 207.247 8.06 207.247 6.668C207.247 3.708 208.263 2.228 210.295 2.228C211.063 2.228 211.667 2.44 212.107 2.864C212.547 3.28 212.807 3.824 212.887 4.496H212.107ZM210.307 6.008C209.931 6.008 209.575 6.084 209.239 6.236C208.903 6.388 208.627 6.62 208.411 6.932C208.203 7.236 208.099 7.612 208.099 8.06C208.099 8.708 208.291 9.248 208.675 9.68C209.059 10.112 209.619 10.328 210.355 10.328C210.971 10.328 211.463 10.14 211.831 9.764C212.199 9.388 212.383 8.876 212.383 8.228C212.383 7.532 212.203 6.988 211.843 6.596C211.483 6.204 210.971 6.008 210.307 6.008ZM225.983 4.328C226.751 4.328 227.375 4.572 227.855 5.06C228.343 5.54 228.587 6.24 228.587 7.16V11H227.759V7.256C227.759 6.544 227.587 6 227.243 5.624C226.899 5.248 226.431 5.06 225.839 5.06C225.223 5.06 224.731 5.264 224.363 5.672C223.995 6.08 223.811 6.672 223.811 7.448V11H222.983V7.256C222.983 6.544 222.811 6 222.467 5.624C222.123 5.248 221.651 5.06 221.051 5.06C220.435 5.06 219.943 5.264 219.575 5.672C219.207 6.08 219.023 6.672 219.023 7.448V11H218.183V4.448H219.023V5.576C219.231 5.168 219.527 4.86 219.911 4.652C220.295 4.436 220.723 4.328 221.195 4.328C221.763 4.328 222.259 4.464 222.683 4.736C223.115 5.008 223.427 5.408 223.619 5.936C223.795 5.416 224.095 5.02 224.519 4.748C224.951 4.468 225.439 4.328 225.983 4.328ZM233.32 11.096C232.704 11.096 232.148 10.96 231.652 10.688C231.164 10.408 230.776 10.016 230.488 9.512C230.208 9 230.068 8.404 230.068 7.724C230.068 7.044 230.212 6.452 230.5 5.948C230.788 5.436 231.18 5.044 231.676 4.772C232.172 4.492 232.728 4.352 233.344 4.352C233.96 4.352 234.516 4.492 235.012 4.772C235.516 5.044 235.908 5.436 236.188 5.948C236.476 6.452 236.62 7.044 236.62 7.724C236.62 8.396 236.476 8.988 236.188 9.5C235.9 10.012 235.504 10.408 235 10.688C234.496 10.96 233.936 11.096 233.32 11.096ZM233.32 10.364C233.752 10.364 234.152 10.268 234.52 10.076C234.888 9.876 235.184 9.58 235.408 9.188C235.64 8.788 235.756 8.3 235.756 7.724C235.756 7.148 235.644 6.664 235.42 6.272C235.196 5.872 234.9 5.576 234.532 5.384C234.164 5.184 233.764 5.084 233.332 5.084C232.9 5.084 232.5 5.184 232.132 5.384C231.764 5.576 231.468 5.872 231.244 6.272C231.028 6.664 230.92 7.148 230.92 7.724C230.92 8.3 231.028 8.788 231.244 9.188C231.468 9.58 231.76 9.876 232.12 10.076C232.488 10.268 232.888 10.364 233.32 10.364ZM241.223 4.328C242.007 4.328 242.647 4.572 243.143 5.06C243.639 5.54 243.887 6.24 243.887 7.16V11H243.059V7.256C243.059 6.544 242.879 6 242.519 5.624C242.167 5.248 241.683 5.06 241.067 5.06C240.435 5.06 239.931 5.26 239.555 5.66C239.179 6.06 238.991 6.648 238.991 7.424V11H238.151V4.448H238.991V5.564C239.199 5.164 239.499 4.86 239.891 4.652C240.283 4.436 240.727 4.328 241.223 4.328ZM246.837 5.156V9.224C246.837 9.624 246.913 9.9 247.065 10.052C247.217 10.204 247.485 10.28 247.869 10.28H248.637V11H247.737C247.145 11 246.705 10.864 246.417 10.592C246.129 10.312 245.985 9.856 245.985 9.224V5.156H245.073V4.448H245.985V2.804H246.837V4.448H248.637V5.156H246.837ZM253.143 4.328C253.639 4.328 254.083 4.432 254.475 4.64C254.875 4.848 255.187 5.168 255.411 5.6C255.643 6.024 255.759 6.544 255.759 7.16V11H254.931V7.256C254.931 6.544 254.751 6 254.391 5.624C254.039 5.248 253.555 5.06 252.939 5.06C252.307 5.06 251.803 5.26 251.427 5.66C251.051 6.06 250.863 6.648 250.863 7.424V11H250.023V2.12H250.863V5.564C251.071 5.172 251.375 4.868 251.775 4.652C252.183 4.436 252.639 4.328 253.143 4.328ZM259.872 11.096C259.12 11.096 258.504 10.924 258.024 10.58C257.552 10.228 257.288 9.752 257.232 9.152H258.096C258.136 9.52 258.308 9.82 258.612 10.052C258.924 10.276 259.34 10.388 259.86 10.388C260.316 10.388 260.672 10.28 260.928 10.064C261.192 9.848 261.324 9.58 261.324 9.26C261.324 9.036 261.252 8.852 261.108 8.708C260.964 8.564 260.78 8.452 260.556 8.372C260.34 8.284 260.044 8.192 259.668 8.096C259.18 7.968 258.784 7.84 258.48 7.712C258.176 7.584 257.916 7.396 257.7 7.148C257.492 6.892 257.388 6.552 257.388 6.128C257.388 5.808 257.484 5.512 257.676 5.24C257.868 4.968 258.14 4.752 258.492 4.592C258.844 4.432 259.244 4.352 259.692 4.352C260.396 4.352 260.964 4.532 261.396 4.892C261.828 5.244 262.06 5.732 262.092 6.356H261.252C261.228 5.972 261.076 5.664 260.796 5.432C260.524 5.192 260.148 5.072 259.668 5.072C259.244 5.072 258.9 5.172 258.636 5.372C258.372 5.572 258.24 5.82 258.24 6.116C258.24 6.372 258.316 6.584 258.468 6.752C258.628 6.912 258.824 7.04 259.056 7.136C259.288 7.224 259.6 7.324 259.992 7.436C260.464 7.564 260.84 7.688 261.12 7.808C261.4 7.928 261.64 8.104 261.84 8.336C262.04 8.568 262.144 8.876 262.152 9.26C262.152 9.612 262.056 9.928 261.864 10.208C261.672 10.48 261.404 10.696 261.06 10.856C260.716 11.016 260.32 11.096 259.872 11.096ZM104.38 17.212C104.212 17.212 104.068 17.152 103.948 17.032C103.828 16.912 103.768 16.764 103.768 16.588C103.768 16.412 103.828 16.268 103.948 16.156C104.068 16.036 104.212 15.976 104.38 15.976C104.548 15.976 104.692 16.036 104.812 16.156C104.932 16.268 104.992 16.412 104.992 16.588C104.992 16.764 104.932 16.912 104.812 17.032C104.692 17.152 104.548 17.212 104.38 17.212ZM104.8 18.448V25H103.96V18.448H104.8ZM109.774 18.328C110.558 18.328 111.198 18.572 111.694 19.06C112.19 19.54 112.438 20.24 112.438 21.16V25H111.61V21.256C111.61 20.544 111.43 20 111.07 19.624C110.718 19.248 110.234 19.06 109.618 19.06C108.986 19.06 108.482 19.26 108.106 19.66C107.73 20.06 107.542 20.648 107.542 21.424V25H106.702V18.448H107.542V19.564C107.75 19.164 108.05 18.86 108.442 18.652C108.834 18.436 109.278 18.328 109.774 18.328ZM115.388 19.156V23.224C115.388 23.624 115.464 23.9 115.616 24.052C115.768 24.204 116.036 24.28 116.42 24.28H117.188V25H116.288C115.696 25 115.256 24.864 114.968 24.592C114.68 24.312 114.536 23.856 114.536 23.224V19.156H113.624V18.448H114.536V16.804H115.388V18.448H117.188V19.156H115.388ZM124.501 21.388C124.501 21.676 124.493 21.896 124.477 22.048H119.041C119.065 22.544 119.185 22.968 119.401 23.32C119.617 23.672 119.901 23.94 120.253 24.124C120.605 24.3 120.989 24.388 121.405 24.388C121.949 24.388 122.405 24.256 122.773 23.992C123.149 23.728 123.397 23.372 123.517 22.924H124.405C124.245 23.564 123.901 24.088 123.373 24.496C122.853 24.896 122.197 25.096 121.405 25.096C120.789 25.096 120.237 24.96 119.749 24.688C119.261 24.408 118.877 24.016 118.597 23.512C118.325 23 118.189 22.404 118.189 21.724C118.189 21.044 118.325 20.448 118.597 19.936C118.869 19.424 119.249 19.032 119.737 18.76C120.225 18.488 120.781 18.352 121.405 18.352C122.029 18.352 122.573 18.488 123.037 18.76C123.509 19.032 123.869 19.4 124.117 19.864C124.373 20.32 124.501 20.828 124.501 21.388ZM123.649 21.364C123.657 20.876 123.557 20.46 123.349 20.116C123.149 19.772 122.873 19.512 122.521 19.336C122.169 19.16 121.785 19.072 121.369 19.072C120.745 19.072 120.213 19.272 119.773 19.672C119.333 20.072 119.089 20.636 119.041 21.364H123.649ZM126.878 19.612C127.062 19.204 127.342 18.888 127.718 18.664C128.102 18.44 128.57 18.328 129.122 18.328V19.204H128.894C128.286 19.204 127.798 19.368 127.43 19.696C127.062 20.024 126.878 20.572 126.878 21.34V25H126.038V18.448H126.878V19.612ZM136.314 21.388C136.314 21.676 136.306 21.896 136.29 22.048H130.854C130.878 22.544 130.998 22.968 131.214 23.32C131.43 23.672 131.714 23.94 132.066 24.124C132.418 24.3 132.802 24.388 133.218 24.388C133.762 24.388 134.218 24.256 134.586 23.992C134.962 23.728 135.21 23.372 135.33 22.924H136.218C136.058 23.564 135.714 24.088 135.186 24.496C134.666 24.896 134.01 25.096 133.218 25.096C132.602 25.096 132.05 24.96 131.562 24.688C131.074 24.408 130.69 24.016 130.41 23.512C130.138 23 130.002 22.404 130.002 21.724C130.002 21.044 130.138 20.448 130.41 19.936C130.682 19.424 131.062 19.032 131.55 18.76C132.038 18.488 132.594 18.352 133.218 18.352C133.842 18.352 134.386 18.488 134.85 18.76C135.322 19.032 135.682 19.4 135.93 19.864C136.186 20.32 136.314 20.828 136.314 21.388ZM135.462 21.364C135.47 20.876 135.37 20.46 135.162 20.116C134.962 19.772 134.686 19.512 134.334 19.336C133.982 19.16 133.598 19.072 133.182 19.072C132.558 19.072 132.026 19.272 131.586 19.672C131.146 20.072 130.902 20.636 130.854 21.364H135.462ZM140.107 25.096C139.355 25.096 138.739 24.924 138.259 24.58C137.787 24.228 137.523 23.752 137.467 23.152H138.331C138.371 23.52 138.543 23.82 138.847 24.052C139.159 24.276 139.575 24.388 140.095 24.388C140.551 24.388 140.907 24.28 141.163 24.064C141.427 23.848 141.559 23.58 141.559 23.26C141.559 23.036 141.487 22.852 141.343 22.708C141.199 22.564 141.015 22.452 140.791 22.372C140.575 22.284 140.279 22.192 139.903 22.096C139.415 21.968 139.019 21.84 138.715 21.712C138.411 21.584 138.151 21.396 137.935 21.148C137.727 20.892 137.623 20.552 137.623 20.128C137.623 19.808 137.719 19.512 137.911 19.24C138.103 18.968 138.375 18.752 138.727 18.592C139.079 18.432 139.479 18.352 139.927 18.352C140.631 18.352 141.199 18.532 141.631 18.892C142.063 19.244 142.295 19.732 142.327 20.356H141.487C141.463 19.972 141.311 19.664 141.031 19.432C140.759 19.192 140.383 19.072 139.903 19.072C139.479 19.072 139.135 19.172 138.871 19.372C138.607 19.572 138.475 19.82 138.475 20.116C138.475 20.372 138.551 20.584 138.703 20.752C138.863 20.912 139.059 21.04 139.291 21.136C139.523 21.224 139.835 21.324 140.227 21.436C140.699 21.564 141.075 21.688 141.355 21.808C141.635 21.928 141.875 22.104 142.075 22.336C142.275 22.568 142.379 22.876 142.387 23.26C142.387 23.612 142.291 23.928 142.099 24.208C141.907 24.48 141.639 24.696 141.295 24.856C140.951 25.016 140.555 25.096 140.107 25.096ZM145.06 19.156V23.224C145.06 23.624 145.136 23.9 145.288 24.052C145.44 24.204 145.708 24.28 146.092 24.28H146.86V25H145.96C145.368 25 144.928 24.864 144.64 24.592C144.352 24.312 144.208 23.856 144.208 23.224V19.156H143.296V18.448H144.208V16.804H145.06V18.448H146.86V19.156H145.06ZM154.118 19.156H152.594V25H151.754V19.156H150.842V18.448H151.754V17.992C151.754 17.28 151.934 16.756 152.294 16.42C152.662 16.084 153.254 15.916 154.07 15.916V16.636C153.526 16.636 153.142 16.74 152.918 16.948C152.702 17.156 152.594 17.504 152.594 17.992V18.448H154.118V19.156ZM156.28 19.612C156.464 19.204 156.744 18.888 157.12 18.664C157.504 18.44 157.972 18.328 158.524 18.328V19.204H158.296C157.688 19.204 157.2 19.368 156.832 19.696C156.464 20.024 156.28 20.572 156.28 21.34V25H155.44V18.448H156.28V19.612ZM165.716 21.388C165.716 21.676 165.708 21.896 165.692 22.048H160.256C160.28 22.544 160.4 22.968 160.616 23.32C160.832 23.672 161.116 23.94 161.468 24.124C161.82 24.3 162.204 24.388 162.62 24.388C163.164 24.388 163.62 24.256 163.988 23.992C164.364 23.728 164.612 23.372 164.732 22.924H165.62C165.46 23.564 165.116 24.088 164.588 24.496C164.068 24.896 163.412 25.096 162.62 25.096C162.004 25.096 161.452 24.96 160.964 24.688C160.476 24.408 160.092 24.016 159.812 23.512C159.54 23 159.404 22.404 159.404 21.724C159.404 21.044 159.54 20.448 159.812 19.936C160.084 19.424 160.464 19.032 160.952 18.76C161.44 18.488 161.996 18.352 162.62 18.352C163.244 18.352 163.788 18.488 164.252 18.76C164.724 19.032 165.084 19.4 165.332 19.864C165.588 20.32 165.716 20.828 165.716 21.388ZM164.864 21.364C164.872 20.876 164.772 20.46 164.564 20.116C164.364 19.772 164.088 19.512 163.736 19.336C163.384 19.16 163 19.072 162.584 19.072C161.96 19.072 161.428 19.272 160.988 19.672C160.548 20.072 160.304 20.636 160.256 21.364H164.864ZM173.181 21.388C173.181 21.676 173.173 21.896 173.157 22.048H167.721C167.745 22.544 167.865 22.968 168.081 23.32C168.297 23.672 168.581 23.94 168.933 24.124C169.285 24.3 169.669 24.388 170.085 24.388C170.629 24.388 171.085 24.256 171.453 23.992C171.829 23.728 172.077 23.372 172.197 22.924H173.085C172.925 23.564 172.581 24.088 172.053 24.496C171.533 24.896 170.877 25.096 170.085 25.096C169.469 25.096 168.917 24.96 168.429 24.688C167.941 24.408 167.557 24.016 167.277 23.512C167.005 23 166.869 22.404 166.869 21.724C166.869 21.044 167.005 20.448 167.277 19.936C167.549 19.424 167.929 19.032 168.417 18.76C168.905 18.488 169.461 18.352 170.085 18.352C170.709 18.352 171.253 18.488 171.717 18.76C172.189 19.032 172.549 19.4 172.797 19.864C173.053 20.32 173.181 20.828 173.181 21.388ZM172.329 21.364C172.337 20.876 172.237 20.46 172.029 20.116C171.829 19.772 171.553 19.512 171.201 19.336C170.849 19.16 170.465 19.072 170.049 19.072C169.425 19.072 168.893 19.272 168.453 19.672C168.013 20.072 167.769 20.636 167.721 21.364H172.329ZM178.851 16.12V25H178.011V16.12H178.851ZM186.681 21.388C186.681 21.676 186.673 21.896 186.657 22.048H181.221C181.245 22.544 181.365 22.968 181.581 23.32C181.797 23.672 182.081 23.94 182.433 24.124C182.785 24.3 183.169 24.388 183.585 24.388C184.129 24.388 184.585 24.256 184.953 23.992C185.329 23.728 185.577 23.372 185.697 22.924H186.585C186.425 23.564 186.081 24.088 185.553 24.496C185.033 24.896 184.377 25.096 183.585 25.096C182.969 25.096 182.417 24.96 181.929 24.688C181.441 24.408 181.057 24.016 180.777 23.512C180.505 23 180.369 22.404 180.369 21.724C180.369 21.044 180.505 20.448 180.777 19.936C181.049 19.424 181.429 19.032 181.917 18.76C182.405 18.488 182.961 18.352 183.585 18.352C184.209 18.352 184.753 18.488 185.217 18.76C185.689 19.032 186.049 19.4 186.297 19.864C186.553 20.32 186.681 20.828 186.681 21.388ZM185.829 21.364C185.837 20.876 185.737 20.46 185.529 20.116C185.329 19.772 185.053 19.512 184.701 19.336C184.349 19.16 183.965 19.072 183.549 19.072C182.925 19.072 182.393 19.272 181.953 19.672C181.513 20.072 181.269 20.636 181.221 21.364H185.829ZM187.834 21.712C187.834 21.04 187.966 20.452 188.23 19.948C188.502 19.436 188.874 19.044 189.346 18.772C189.826 18.492 190.366 18.352 190.966 18.352C191.59 18.352 192.126 18.496 192.574 18.784C193.03 19.072 193.358 19.44 193.558 19.888V18.448H194.398V25H193.558V23.548C193.35 23.996 193.018 24.368 192.562 24.664C192.114 24.952 191.578 25.096 190.954 25.096C190.362 25.096 189.826 24.956 189.346 24.676C188.874 24.396 188.502 24 188.23 23.488C187.966 22.976 187.834 22.384 187.834 21.712ZM193.558 21.724C193.558 21.196 193.45 20.732 193.234 20.332C193.018 19.932 192.722 19.624 192.346 19.408C191.978 19.192 191.57 19.084 191.122 19.084C190.658 19.084 190.242 19.188 189.874 19.396C189.506 19.604 189.214 19.908 188.998 20.308C188.79 20.7 188.686 21.168 188.686 21.712C188.686 22.248 188.79 22.72 188.998 23.128C189.214 23.528 189.506 23.836 189.874 24.052C190.242 24.26 190.658 24.364 191.122 24.364C191.57 24.364 191.978 24.256 192.346 24.04C192.722 23.824 193.018 23.516 193.234 23.116C193.45 22.716 193.558 22.252 193.558 21.724ZM197.155 19.612C197.339 19.204 197.619 18.888 197.995 18.664C198.379 18.44 198.847 18.328 199.399 18.328V19.204H199.171C198.563 19.204 198.075 19.368 197.707 19.696C197.339 20.024 197.155 20.572 197.155 21.34V25H196.315V18.448H197.155V19.612ZM203.735 18.328C204.519 18.328 205.159 18.572 205.655 19.06C206.151 19.54 206.399 20.24 206.399 21.16V25H205.571V21.256C205.571 20.544 205.391 20 205.031 19.624C204.679 19.248 204.195 19.06 203.579 19.06C202.947 19.06 202.443 19.26 202.067 19.66C201.691 20.06 201.503 20.648 201.503 21.424V25H200.663V18.448H201.503V19.564C201.711 19.164 202.011 18.86 202.403 18.652C202.795 18.436 203.239 18.328 203.735 18.328ZM219.35 18.328C220.118 18.328 220.742 18.572 221.222 19.06C221.71 19.54 221.954 20.24 221.954 21.16V25H221.126V21.256C221.126 20.544 220.954 20 220.61 19.624C220.266 19.248 219.798 19.06 219.206 19.06C218.59 19.06 218.098 19.264 217.73 19.672C217.362 20.08 217.178 20.672 217.178 21.448V25H216.35V21.256C216.35 20.544 216.178 20 215.834 19.624C215.49 19.248 215.018 19.06 214.418 19.06C213.802 19.06 213.31 19.264 212.942 19.672C212.574 20.08 212.39 20.672 212.39 21.448V25H211.55V18.448H212.39V19.576C212.598 19.168 212.894 18.86 213.278 18.652C213.662 18.436 214.09 18.328 214.562 18.328C215.13 18.328 215.626 18.464 216.05 18.736C216.482 19.008 216.794 19.408 216.986 19.936C217.162 19.416 217.462 19.02 217.886 18.748C218.318 18.468 218.806 18.328 219.35 18.328ZM226.687 25.096C226.071 25.096 225.515 24.96 225.019 24.688C224.531 24.408 224.143 24.016 223.855 23.512C223.575 23 223.435 22.404 223.435 21.724C223.435 21.044 223.579 20.452 223.867 19.948C224.155 19.436 224.547 19.044 225.043 18.772C225.539 18.492 226.095 18.352 226.711 18.352C227.327 18.352 227.883 18.492 228.379 18.772C228.883 19.044 229.275 19.436 229.555 19.948C229.843 20.452 229.987 21.044 229.987 21.724C229.987 22.396 229.843 22.988 229.555 23.5C229.267 24.012 228.871 24.408 228.367 24.688C227.863 24.96 227.303 25.096 226.687 25.096ZM226.687 24.364C227.119 24.364 227.519 24.268 227.887 24.076C228.255 23.876 228.551 23.58 228.775 23.188C229.007 22.788 229.123 22.3 229.123 21.724C229.123 21.148 229.011 20.664 228.787 20.272C228.563 19.872 228.267 19.576 227.899 19.384C227.531 19.184 227.131 19.084 226.699 19.084C226.267 19.084 225.867 19.184 225.499 19.384C225.131 19.576 224.835 19.872 224.611 20.272C224.395 20.664 224.287 21.148 224.287 21.724C224.287 22.3 224.395 22.788 224.611 23.188C224.835 23.58 225.127 23.876 225.487 24.076C225.855 24.268 226.255 24.364 226.687 24.364ZM232.359 19.612C232.543 19.204 232.823 18.888 233.199 18.664C233.583 18.44 234.051 18.328 234.603 18.328V19.204H234.375C233.767 19.204 233.279 19.368 232.911 19.696C232.543 20.024 232.359 20.572 232.359 21.34V25H231.519V18.448H232.359V19.612ZM241.794 21.388C241.794 21.676 241.786 21.896 241.77 22.048H236.334C236.358 22.544 236.478 22.968 236.694 23.32C236.91 23.672 237.194 23.94 237.546 24.124C237.898 24.3 238.282 24.388 238.698 24.388C239.242 24.388 239.698 24.256 240.066 23.992C240.442 23.728 240.69 23.372 240.81 22.924H241.698C241.538 23.564 241.194 24.088 240.666 24.496C240.146 24.896 239.49 25.096 238.698 25.096C238.082 25.096 237.53 24.96 237.042 24.688C236.554 24.408 236.17 24.016 235.89 23.512C235.618 23 235.482 22.404 235.482 21.724C235.482 21.044 235.618 20.448 235.89 19.936C236.162 19.424 236.542 19.032 237.03 18.76C237.518 18.488 238.074 18.352 238.698 18.352C239.322 18.352 239.866 18.488 240.33 18.76C240.802 19.032 241.162 19.4 241.41 19.864C241.666 20.32 241.794 20.828 241.794 21.388ZM240.942 21.364C240.95 20.876 240.85 20.46 240.642 20.116C240.442 19.772 240.166 19.512 239.814 19.336C239.462 19.16 239.078 19.072 238.662 19.072C238.038 19.072 237.506 19.272 237.066 19.672C236.626 20.072 236.382 20.636 236.334 21.364H240.942Z" fill="black"/>
<path d="M177.051 26.2H242.37V26.8H177.051V26.2Z" fill="black"/>
<defs>
<clipPath id="clip0_73_5173">
<rect width="77" height="27" fill="white"/>
</clipPath>
</defs>
</svg>
